<svg width="1228" height="229" viewBox="0 0 1228 229" fill="none" xmlns="http://www.w3.org/2000/svg">
<g filter="url(#filter0_d_2002_6)">
<rect x="49" y="45" width="1128" height="129" rx="10" fill="white"/>
</g>
<rect x="91" y="79" width="58" height="58" rx="29" fill="#F4F6F9"/>
<path d="M138.334 97.9988L122.5 113.832L114.167 105.499L101.667 117.999" stroke="black" stroke-width="2.5" stroke-linecap="round" stroke-linejoin="round"/>
<path d="M128.333 97.9988H138.333V107.999" stroke="black" stroke-width="2.5" stroke-linecap="round" stroke-linejoin="round"/>
<path d="M181.531 83.2031V106H177.031V88.3906L171.625 90.1094V86.5625L181.047 83.2031H181.531ZM204.6 102.484V106H189.038V103L196.397 95.1094C197.136 94.2865 197.72 93.5625 198.147 92.9375C198.574 92.3021 198.881 91.7344 199.069 91.2344C199.267 90.724 199.366 90.2396 199.366 89.7812C199.366 89.0938 199.251 88.5052 199.022 88.0156C198.793 87.5156 198.454 87.1302 198.006 86.8594C197.569 86.5885 197.027 86.4531 196.381 86.4531C195.694 86.4531 195.1 86.6198 194.6 86.9531C194.11 87.2865 193.735 87.75 193.475 88.3438C193.225 88.9375 193.1 89.6094 193.1 90.3594H188.584C188.584 89.0052 188.907 87.7656 189.553 86.6406C190.199 85.5052 191.11 84.6042 192.288 83.9375C193.465 83.2604 194.86 82.9219 196.475 82.9219C198.069 82.9219 199.413 83.1823 200.506 83.7031C201.61 84.2135 202.444 84.9531 203.006 85.9219C203.579 86.8802 203.866 88.026 203.866 89.3594C203.866 90.1094 203.746 90.8438 203.506 91.5625C203.267 92.2708 202.923 92.9792 202.475 93.6875C202.038 94.3854 201.506 95.0938 200.881 95.8125C200.256 96.5312 199.564 97.276 198.803 98.0469L194.85 102.484H204.6ZM219.122 83.0156H219.778V86.6094H219.513C218.325 86.6094 217.268 86.7865 216.341 87.1406C215.414 87.4948 214.627 88 213.981 88.6562C213.346 89.3021 212.856 90.0833 212.513 91C212.179 91.9167 212.013 92.9427 212.013 94.0781V97.8594C212.013 98.6719 212.091 99.3906 212.247 100.016C212.414 100.63 212.648 101.146 212.95 101.562C213.263 101.969 213.627 102.276 214.044 102.484C214.46 102.682 214.929 102.781 215.45 102.781C215.94 102.781 216.382 102.677 216.778 102.469C217.184 102.26 217.528 101.969 217.809 101.594C218.101 101.208 218.32 100.76 218.466 100.25C218.622 99.7292 218.7 99.1615 218.7 98.5469C218.7 97.9323 218.622 97.3646 218.466 96.8438C218.32 96.3229 218.101 95.875 217.809 95.5C217.518 95.1146 217.164 94.8177 216.747 94.6094C216.33 94.401 215.861 94.2969 215.341 94.2969C214.632 94.2969 214.007 94.4635 213.466 94.7969C212.934 95.1198 212.518 95.5365 212.216 96.0469C211.914 96.5573 211.752 97.0938 211.731 97.6562L210.372 96.7812C210.403 95.9792 210.57 95.2188 210.872 94.5C211.184 93.7812 211.611 93.1458 212.153 92.5938C212.705 92.0312 213.367 91.5938 214.138 91.2812C214.908 90.9583 215.778 90.7969 216.747 90.7969C217.809 90.7969 218.742 91 219.544 91.4062C220.356 91.8125 221.033 92.3698 221.575 93.0781C222.117 93.7865 222.523 94.6042 222.794 95.5312C223.065 96.4583 223.2 97.4479 223.2 98.5C223.2 99.6042 223.018 100.63 222.653 101.578C222.299 102.526 221.783 103.354 221.106 104.062C220.44 104.771 219.638 105.323 218.7 105.719C217.763 106.115 216.71 106.312 215.544 106.312C214.335 106.312 213.236 106.094 212.247 105.656C211.268 105.208 210.424 104.583 209.716 103.781C209.007 102.979 208.46 102.026 208.075 100.922C207.7 99.8177 207.513 98.6094 207.513 97.2969V95.5469C207.513 93.7135 207.778 92.0365 208.309 90.5156C208.851 88.9844 209.627 87.6615 210.638 86.5469C211.648 85.4219 212.867 84.5521 214.294 83.9375C215.721 83.3229 217.33 83.0156 219.122 83.0156ZM225.925 88.8281V87.625C225.925 86.7604 226.112 85.974 226.487 85.2656C226.862 84.5573 227.415 83.9896 228.144 83.5625C228.873 83.1354 229.769 82.9219 230.831 82.9219C231.925 82.9219 232.836 83.1354 233.566 83.5625C234.305 83.9896 234.857 84.5573 235.222 85.2656C235.597 85.974 235.784 86.7604 235.784 87.625V88.8281C235.784 89.6719 235.597 90.4479 235.222 91.1562C234.857 91.8646 234.31 92.4323 233.581 92.8594C232.852 93.2865 231.951 93.5 230.878 93.5C229.795 93.5 228.883 93.2865 228.144 92.8594C227.415 92.4323 226.862 91.8646 226.487 91.1562C226.112 90.4479 225.925 89.6719 225.925 88.8281ZM228.909 87.625V88.8281C228.909 89.1927 228.977 89.5417 229.112 89.875C229.258 90.1979 229.477 90.4635 229.769 90.6719C230.071 90.8698 230.435 90.9688 230.862 90.9688C231.31 90.9688 231.675 90.8698 231.956 90.6719C232.237 90.4635 232.446 90.1979 232.581 89.875C232.717 89.5417 232.784 89.1927 232.784 88.8281V87.625C232.784 87.2396 232.711 86.8854 232.566 86.5625C232.43 86.2292 232.217 85.9635 231.925 85.7656C231.644 85.5573 231.279 85.4531 230.831 85.4531C230.415 85.4531 230.06 85.5573 229.769 85.7656C229.477 85.9635 229.258 86.2292 229.112 86.5625C228.977 86.8854 228.909 87.2396 228.909 87.625ZM236.8 101.625V100.422C236.8 99.5677 236.987 98.7865 237.362 98.0781C237.748 97.3698 238.305 96.8021 239.034 96.375C239.774 95.9479 240.68 95.7344 241.753 95.7344C242.836 95.7344 243.743 95.9479 244.472 96.375C245.201 96.8021 245.753 97.3698 246.128 98.0781C246.503 98.7865 246.691 99.5677 246.691 100.422V101.625C246.691 102.479 246.503 103.26 246.128 103.969C245.764 104.677 245.217 105.245 244.487 105.672C243.758 106.099 242.857 106.312 241.784 106.312C240.701 106.312 239.79 106.099 239.05 105.672C238.31 105.245 237.748 104.677 237.362 103.969C236.987 103.26 236.8 102.479 236.8 101.625ZM239.8 100.422V101.625C239.8 102 239.883 102.354 240.05 102.688C240.217 103.021 240.446 103.286 240.737 103.484C241.04 103.682 241.389 103.781 241.784 103.781C242.284 103.781 242.675 103.682 242.956 103.484C243.237 103.286 243.43 103.021 243.534 102.688C243.649 102.354 243.706 102 243.706 101.625V100.422C243.706 100.047 243.633 99.6979 243.487 99.375C243.342 99.0417 243.123 98.776 242.831 98.5781C242.55 98.3698 242.191 98.2656 241.753 98.2656C241.316 98.2656 240.951 98.3698 240.659 98.5781C240.378 98.776 240.165 99.0417 240.019 99.375C239.873 99.6979 239.8 100.047 239.8 100.422ZM242.862 86.5L231.753 104.281L229.566 103.125L240.675 85.3438L242.862 86.5Z" fill="#27B94E"/>
<path d="M174.695 122.562V134H173.25V124.367L170.336 125.43V124.125L174.469 122.562H174.695ZM186.397 122.625V123.438L181.686 134H180.163L184.866 123.812H178.709V122.625H186.397ZM195.286 127.406V129.141C195.286 130.073 195.203 130.859 195.036 131.5C194.869 132.141 194.63 132.656 194.317 133.047C194.005 133.438 193.627 133.721 193.184 133.898C192.747 134.07 192.252 134.156 191.7 134.156C191.263 134.156 190.859 134.102 190.489 133.992C190.119 133.883 189.786 133.708 189.489 133.469C189.197 133.224 188.947 132.906 188.739 132.516C188.531 132.125 188.372 131.651 188.263 131.094C188.153 130.536 188.098 129.885 188.098 129.141V127.406C188.098 126.474 188.182 125.693 188.348 125.062C188.52 124.432 188.763 123.927 189.075 123.547C189.388 123.161 189.763 122.885 190.2 122.719C190.643 122.552 191.138 122.469 191.684 122.469C192.127 122.469 192.533 122.523 192.903 122.633C193.278 122.737 193.611 122.906 193.903 123.141C194.195 123.37 194.442 123.677 194.645 124.062C194.854 124.443 195.013 124.909 195.122 125.461C195.231 126.013 195.286 126.661 195.286 127.406ZM193.833 129.375V127.164C193.833 126.654 193.802 126.206 193.739 125.82C193.682 125.43 193.596 125.096 193.481 124.82C193.367 124.544 193.221 124.32 193.044 124.148C192.872 123.977 192.671 123.852 192.442 123.773C192.218 123.69 191.966 123.648 191.684 123.648C191.341 123.648 191.036 123.714 190.77 123.844C190.505 123.969 190.281 124.169 190.098 124.445C189.921 124.721 189.786 125.083 189.692 125.531C189.598 125.979 189.552 126.523 189.552 127.164V129.375C189.552 129.885 189.58 130.336 189.638 130.727C189.7 131.117 189.791 131.456 189.911 131.742C190.031 132.023 190.177 132.255 190.348 132.438C190.52 132.62 190.718 132.755 190.942 132.844C191.171 132.927 191.424 132.969 191.7 132.969C192.054 132.969 192.364 132.901 192.63 132.766C192.895 132.63 193.117 132.419 193.294 132.133C193.476 131.841 193.611 131.469 193.7 131.016C193.789 130.557 193.833 130.01 193.833 129.375ZM197.12 125.414V124.812C197.12 124.38 197.214 123.987 197.402 123.633C197.589 123.279 197.857 122.995 198.206 122.781C198.555 122.568 198.969 122.461 199.448 122.461C199.938 122.461 200.355 122.568 200.698 122.781C201.047 122.995 201.316 123.279 201.503 123.633C201.691 123.987 201.784 124.38 201.784 124.812V125.414C201.784 125.836 201.691 126.224 201.503 126.578C201.321 126.932 201.055 127.216 200.706 127.43C200.362 127.643 199.948 127.75 199.464 127.75C198.98 127.75 198.56 127.643 198.206 127.43C197.857 127.216 197.589 126.932 197.402 126.578C197.214 126.224 197.12 125.836 197.12 125.414ZM198.206 124.812V125.414C198.206 125.654 198.251 125.88 198.339 126.094C198.433 126.307 198.573 126.482 198.761 126.617C198.948 126.747 199.183 126.812 199.464 126.812C199.745 126.812 199.977 126.747 200.159 126.617C200.342 126.482 200.477 126.307 200.566 126.094C200.654 125.88 200.698 125.654 200.698 125.414V124.812C200.698 124.568 200.652 124.339 200.558 124.125C200.469 123.906 200.331 123.732 200.144 123.602C199.961 123.466 199.73 123.398 199.448 123.398C199.172 123.398 198.941 123.466 198.753 123.602C198.571 123.732 198.433 123.906 198.339 124.125C198.251 124.339 198.206 124.568 198.206 124.812ZM202.659 131.82V131.211C202.659 130.784 202.753 130.393 202.941 130.039C203.128 129.685 203.396 129.401 203.745 129.188C204.094 128.974 204.508 128.867 204.987 128.867C205.477 128.867 205.894 128.974 206.237 129.188C206.586 129.401 206.855 129.685 207.042 130.039C207.23 130.393 207.323 130.784 207.323 131.211V131.82C207.323 132.247 207.23 132.638 207.042 132.992C206.86 133.346 206.594 133.63 206.245 133.844C205.902 134.057 205.487 134.164 205.003 134.164C204.519 134.164 204.102 134.057 203.753 133.844C203.404 133.63 203.133 133.346 202.941 132.992C202.753 132.638 202.659 132.247 202.659 131.82ZM203.745 131.211V131.82C203.745 132.06 203.79 132.289 203.878 132.508C203.972 132.721 204.112 132.896 204.3 133.031C204.487 133.161 204.722 133.227 205.003 133.227C205.284 133.227 205.516 133.161 205.698 133.031C205.886 132.896 206.024 132.721 206.112 132.508C206.201 132.294 206.245 132.065 206.245 131.82V131.211C206.245 130.966 206.198 130.737 206.105 130.523C206.016 130.31 205.878 130.138 205.691 130.008C205.508 129.872 205.274 129.805 204.987 129.805C204.711 129.805 204.48 129.872 204.292 130.008C204.11 130.138 203.972 130.31 203.878 130.523C203.79 130.737 203.745 130.966 203.745 131.211ZM205.347 124.242L199.792 133.133L198.98 132.617L204.534 123.727L205.347 124.242ZM217.719 123.633L213.953 134H212.414L216.75 122.625H217.742L217.719 123.633ZM220.875 134L217.102 123.633L217.078 122.625H218.07L222.422 134H220.875ZM220.68 129.789V131.023H214.289V129.789H220.68ZM226.006 132.695L228.319 125.547H229.795L226.756 134H225.787L226.006 132.695ZM224.077 125.547L226.459 132.734L226.623 134H225.655L222.592 125.547H224.077ZM234.684 134.156C234.096 134.156 233.562 134.057 233.083 133.859C232.609 133.656 232.2 133.372 231.856 133.008C231.518 132.643 231.257 132.211 231.075 131.711C230.893 131.211 230.802 130.664 230.802 130.07V129.742C230.802 129.055 230.903 128.443 231.106 127.906C231.309 127.365 231.585 126.906 231.934 126.531C232.283 126.156 232.679 125.872 233.122 125.68C233.565 125.487 234.023 125.391 234.497 125.391C235.101 125.391 235.622 125.495 236.059 125.703C236.502 125.911 236.864 126.203 237.145 126.578C237.427 126.948 237.635 127.385 237.77 127.891C237.906 128.391 237.973 128.938 237.973 129.531V130.18H231.661V129H236.528V128.891C236.507 128.516 236.429 128.151 236.294 127.797C236.164 127.443 235.955 127.151 235.669 126.922C235.382 126.693 234.992 126.578 234.497 126.578C234.169 126.578 233.867 126.648 233.591 126.789C233.315 126.924 233.078 127.128 232.88 127.398C232.682 127.669 232.528 128 232.419 128.391C232.309 128.781 232.255 129.232 232.255 129.742V130.07C232.255 130.471 232.309 130.849 232.419 131.203C232.533 131.552 232.697 131.859 232.911 132.125C233.13 132.391 233.393 132.599 233.7 132.75C234.013 132.901 234.367 132.977 234.763 132.977C235.273 132.977 235.705 132.872 236.059 132.664C236.414 132.456 236.723 132.177 236.989 131.828L237.864 132.523C237.682 132.799 237.45 133.062 237.169 133.312C236.888 133.562 236.541 133.766 236.13 133.922C235.723 134.078 235.242 134.156 234.684 134.156ZM241.206 126.875V134H239.761V125.547H241.167L241.206 126.875ZM243.847 125.5L243.839 126.844C243.719 126.818 243.605 126.802 243.495 126.797C243.391 126.786 243.271 126.781 243.136 126.781C242.803 126.781 242.508 126.833 242.253 126.938C241.998 127.042 241.782 127.188 241.605 127.375C241.428 127.562 241.287 127.786 241.183 128.047C241.084 128.302 241.019 128.583 240.988 128.891L240.581 129.125C240.581 128.615 240.631 128.135 240.73 127.688C240.834 127.24 240.993 126.844 241.206 126.5C241.42 126.151 241.691 125.88 242.019 125.688C242.352 125.49 242.748 125.391 243.206 125.391C243.31 125.391 243.43 125.404 243.566 125.43C243.701 125.451 243.795 125.474 243.847 125.5ZM249.955 132.555V128.203C249.955 127.87 249.887 127.581 249.752 127.336C249.621 127.086 249.423 126.893 249.158 126.758C248.892 126.622 248.564 126.555 248.173 126.555C247.809 126.555 247.489 126.617 247.213 126.742C246.942 126.867 246.728 127.031 246.572 127.234C246.421 127.438 246.345 127.656 246.345 127.891H244.9C244.9 127.589 244.978 127.289 245.134 126.992C245.291 126.695 245.515 126.427 245.806 126.188C246.103 125.943 246.457 125.75 246.869 125.609C247.285 125.464 247.749 125.391 248.259 125.391C248.874 125.391 249.416 125.495 249.884 125.703C250.358 125.911 250.728 126.227 250.994 126.648C251.265 127.065 251.4 127.589 251.4 128.219V132.156C251.4 132.438 251.423 132.737 251.47 133.055C251.522 133.372 251.598 133.646 251.697 133.875V134H250.189C250.116 133.833 250.059 133.612 250.017 133.336C249.976 133.055 249.955 132.794 249.955 132.555ZM250.205 128.875L250.22 129.891H248.759C248.348 129.891 247.981 129.924 247.658 129.992C247.335 130.055 247.064 130.151 246.845 130.281C246.627 130.411 246.46 130.576 246.345 130.773C246.231 130.966 246.173 131.193 246.173 131.453C246.173 131.719 246.233 131.961 246.353 132.18C246.473 132.398 246.653 132.573 246.892 132.703C247.137 132.828 247.436 132.891 247.791 132.891C248.233 132.891 248.624 132.797 248.963 132.609C249.301 132.422 249.569 132.193 249.767 131.922C249.97 131.651 250.08 131.388 250.095 131.133L250.713 131.828C250.676 132.047 250.577 132.289 250.416 132.555C250.254 132.82 250.038 133.076 249.767 133.32C249.502 133.56 249.184 133.76 248.814 133.922C248.449 134.078 248.038 134.156 247.58 134.156C247.007 134.156 246.504 134.044 246.072 133.82C245.645 133.596 245.311 133.297 245.072 132.922C244.838 132.542 244.72 132.117 244.72 131.648C244.72 131.195 244.809 130.797 244.986 130.453C245.163 130.104 245.418 129.815 245.752 129.586C246.085 129.352 246.486 129.174 246.955 129.055C247.423 128.935 247.947 128.875 248.525 128.875H250.205ZM259.25 125.547H260.562V133.82C260.562 134.565 260.411 135.201 260.109 135.727C259.807 136.253 259.385 136.651 258.844 136.922C258.307 137.198 257.688 137.336 256.984 137.336C256.693 137.336 256.349 137.289 255.953 137.195C255.562 137.107 255.177 136.953 254.797 136.734C254.422 136.521 254.107 136.232 253.852 135.867L254.609 135.008C254.964 135.435 255.333 135.732 255.719 135.898C256.109 136.065 256.495 136.148 256.875 136.148C257.333 136.148 257.729 136.062 258.062 135.891C258.396 135.719 258.654 135.464 258.836 135.125C259.023 134.792 259.117 134.38 259.117 133.891V127.406L259.25 125.547ZM253.43 129.867V129.703C253.43 129.057 253.505 128.471 253.656 127.945C253.812 127.414 254.034 126.958 254.32 126.578C254.612 126.198 254.964 125.906 255.375 125.703C255.786 125.495 256.25 125.391 256.766 125.391C257.297 125.391 257.76 125.484 258.156 125.672C258.557 125.854 258.896 126.122 259.172 126.477C259.453 126.826 259.674 127.247 259.836 127.742C259.997 128.237 260.109 128.797 260.172 129.422V130.141C260.115 130.76 260.003 131.318 259.836 131.812C259.674 132.307 259.453 132.729 259.172 133.078C258.896 133.427 258.557 133.695 258.156 133.883C257.755 134.065 257.286 134.156 256.75 134.156C256.245 134.156 255.786 134.049 255.375 133.836C254.969 133.622 254.62 133.323 254.328 132.938C254.036 132.552 253.812 132.099 253.656 131.578C253.505 131.052 253.43 130.482 253.43 129.867ZM254.875 129.703V129.867C254.875 130.289 254.917 130.685 255 131.055C255.089 131.424 255.221 131.75 255.398 132.031C255.581 132.312 255.812 132.534 256.094 132.695C256.375 132.852 256.711 132.93 257.102 132.93C257.581 132.93 257.977 132.828 258.289 132.625C258.602 132.422 258.849 132.154 259.031 131.82C259.219 131.487 259.365 131.125 259.469 130.734V128.852C259.411 128.565 259.323 128.289 259.203 128.023C259.089 127.753 258.938 127.513 258.75 127.305C258.568 127.091 258.341 126.922 258.07 126.797C257.799 126.672 257.482 126.609 257.117 126.609C256.721 126.609 256.38 126.693 256.094 126.859C255.812 127.021 255.581 127.245 255.398 127.531C255.221 127.812 255.089 128.141 255 128.516C254.917 128.885 254.875 129.281 254.875 129.703ZM266.366 134.156C265.777 134.156 265.243 134.057 264.764 133.859C264.29 133.656 263.881 133.372 263.537 133.008C263.199 132.643 262.939 132.211 262.756 131.711C262.574 131.211 262.483 130.664 262.483 130.07V129.742C262.483 129.055 262.584 128.443 262.787 127.906C262.991 127.365 263.267 126.906 263.616 126.531C263.965 126.156 264.36 125.872 264.803 125.68C265.246 125.487 265.704 125.391 266.178 125.391C266.782 125.391 267.303 125.495 267.741 125.703C268.183 125.911 268.545 126.203 268.827 126.578C269.108 126.948 269.316 127.385 269.452 127.891C269.587 128.391 269.655 128.938 269.655 129.531V130.18H263.342V129H268.209V128.891C268.189 128.516 268.11 128.151 267.975 127.797C267.845 127.443 267.636 127.151 267.35 126.922C267.064 126.693 266.673 126.578 266.178 126.578C265.85 126.578 265.548 126.648 265.272 126.789C264.996 126.924 264.759 127.128 264.561 127.398C264.363 127.669 264.209 128 264.1 128.391C263.991 128.781 263.936 129.232 263.936 129.742V130.07C263.936 130.471 263.991 130.849 264.1 131.203C264.215 131.552 264.379 131.859 264.592 132.125C264.811 132.391 265.074 132.599 265.381 132.75C265.694 132.901 266.048 132.977 266.444 132.977C266.954 132.977 267.386 132.872 267.741 132.664C268.095 132.456 268.405 132.177 268.67 131.828L269.545 132.523C269.363 132.799 269.131 133.062 268.85 133.312C268.569 133.562 268.222 133.766 267.811 133.922C267.405 134.078 266.923 134.156 266.366 134.156ZM281.792 131.125C281.792 130.859 281.751 130.625 281.667 130.422C281.589 130.214 281.448 130.026 281.245 129.859C281.047 129.693 280.771 129.534 280.417 129.383C280.068 129.232 279.626 129.078 279.089 128.922C278.527 128.755 278.019 128.57 277.566 128.367C277.113 128.159 276.724 127.922 276.402 127.656C276.079 127.391 275.831 127.086 275.659 126.742C275.488 126.398 275.402 126.005 275.402 125.562C275.402 125.12 275.493 124.711 275.675 124.336C275.857 123.961 276.118 123.635 276.456 123.359C276.8 123.078 277.209 122.859 277.683 122.703C278.157 122.547 278.685 122.469 279.269 122.469C280.123 122.469 280.847 122.633 281.441 122.961C282.04 123.284 282.495 123.708 282.808 124.234C283.12 124.755 283.277 125.312 283.277 125.906H281.777C281.777 125.479 281.685 125.102 281.503 124.773C281.321 124.44 281.045 124.18 280.675 123.992C280.305 123.799 279.836 123.703 279.269 123.703C278.732 123.703 278.29 123.784 277.941 123.945C277.592 124.107 277.331 124.326 277.159 124.602C276.993 124.878 276.909 125.193 276.909 125.547C276.909 125.786 276.959 126.005 277.058 126.203C277.162 126.396 277.321 126.576 277.534 126.742C277.753 126.909 278.029 127.062 278.363 127.203C278.701 127.344 279.105 127.479 279.573 127.609C280.219 127.792 280.777 127.995 281.245 128.219C281.714 128.443 282.099 128.695 282.402 128.977C282.709 129.253 282.935 129.568 283.081 129.922C283.232 130.271 283.308 130.667 283.308 131.109C283.308 131.573 283.214 131.992 283.027 132.367C282.839 132.742 282.571 133.062 282.222 133.328C281.873 133.594 281.454 133.799 280.964 133.945C280.48 134.086 279.938 134.156 279.339 134.156C278.813 134.156 278.295 134.083 277.784 133.938C277.279 133.792 276.818 133.573 276.402 133.281C275.99 132.99 275.659 132.63 275.409 132.203C275.165 131.771 275.042 131.271 275.042 130.703H276.542C276.542 131.094 276.618 131.43 276.769 131.711C276.92 131.987 277.126 132.216 277.386 132.398C277.652 132.581 277.951 132.716 278.284 132.805C278.623 132.888 278.974 132.93 279.339 132.93C279.865 132.93 280.31 132.857 280.675 132.711C281.04 132.565 281.316 132.357 281.503 132.086C281.696 131.815 281.792 131.495 281.792 131.125ZM290.095 132.555V128.203C290.095 127.87 290.028 127.581 289.892 127.336C289.762 127.086 289.564 126.893 289.298 126.758C289.033 126.622 288.705 126.555 288.314 126.555C287.949 126.555 287.629 126.617 287.353 126.742C287.082 126.867 286.869 127.031 286.713 127.234C286.561 127.438 286.486 127.656 286.486 127.891H285.041C285.041 127.589 285.119 127.289 285.275 126.992C285.431 126.695 285.655 126.427 285.947 126.188C286.244 125.943 286.598 125.75 287.009 125.609C287.426 125.464 287.89 125.391 288.4 125.391C289.015 125.391 289.556 125.495 290.025 125.703C290.499 125.911 290.869 126.227 291.134 126.648C291.405 127.065 291.541 127.589 291.541 128.219V132.156C291.541 132.438 291.564 132.737 291.611 133.055C291.663 133.372 291.739 133.646 291.838 133.875V134H290.33C290.257 133.833 290.199 133.612 290.158 133.336C290.116 133.055 290.095 132.794 290.095 132.555ZM290.345 128.875L290.361 129.891H288.9C288.489 129.891 288.121 129.924 287.798 129.992C287.476 130.055 287.205 130.151 286.986 130.281C286.767 130.411 286.601 130.576 286.486 130.773C286.371 130.966 286.314 131.193 286.314 131.453C286.314 131.719 286.374 131.961 286.494 132.18C286.614 132.398 286.793 132.573 287.033 132.703C287.278 132.828 287.577 132.891 287.931 132.891C288.374 132.891 288.765 132.797 289.103 132.609C289.442 132.422 289.71 132.193 289.908 131.922C290.111 131.651 290.22 131.388 290.236 131.133L290.853 131.828C290.817 132.047 290.718 132.289 290.556 132.555C290.395 132.82 290.179 133.076 289.908 133.32C289.642 133.56 289.324 133.76 288.955 133.922C288.59 134.078 288.179 134.156 287.72 134.156C287.147 134.156 286.645 134.044 286.213 133.82C285.785 133.596 285.452 133.297 285.213 132.922C284.978 132.542 284.861 132.117 284.861 131.648C284.861 131.195 284.949 130.797 285.127 130.453C285.304 130.104 285.559 129.815 285.892 129.586C286.226 129.352 286.627 129.174 287.095 129.055C287.564 128.935 288.088 128.875 288.666 128.875H290.345ZM295.484 122V134H294.031V122H295.484ZM302.889 132.555V128.203C302.889 127.87 302.821 127.581 302.686 127.336C302.556 127.086 302.358 126.893 302.092 126.758C301.827 126.622 301.498 126.555 301.108 126.555C300.743 126.555 300.423 126.617 300.147 126.742C299.876 126.867 299.662 127.031 299.506 127.234C299.355 127.438 299.28 127.656 299.28 127.891H297.834C297.834 127.589 297.912 127.289 298.069 126.992C298.225 126.695 298.449 126.427 298.741 126.188C299.037 125.943 299.392 125.75 299.803 125.609C300.22 125.464 300.683 125.391 301.194 125.391C301.808 125.391 302.35 125.495 302.819 125.703C303.293 125.911 303.662 126.227 303.928 126.648C304.199 127.065 304.334 127.589 304.334 128.219V132.156C304.334 132.438 304.358 132.737 304.405 133.055C304.457 133.372 304.532 133.646 304.631 133.875V134H303.123C303.051 133.833 302.993 133.612 302.952 133.336C302.91 133.055 302.889 132.794 302.889 132.555ZM303.139 128.875L303.155 129.891H301.694C301.282 129.891 300.915 129.924 300.592 129.992C300.269 130.055 299.998 130.151 299.78 130.281C299.561 130.411 299.394 130.576 299.28 130.773C299.165 130.966 299.108 131.193 299.108 131.453C299.108 131.719 299.168 131.961 299.287 132.18C299.407 132.398 299.587 132.573 299.827 132.703C300.071 132.828 300.371 132.891 300.725 132.891C301.168 132.891 301.558 132.797 301.897 132.609C302.235 132.422 302.504 132.193 302.702 131.922C302.905 131.651 303.014 131.388 303.03 131.133L303.647 131.828C303.61 132.047 303.511 132.289 303.35 132.555C303.189 132.82 302.972 133.076 302.702 133.32C302.436 133.56 302.118 133.76 301.748 133.922C301.384 134.078 300.972 134.156 300.514 134.156C299.941 134.156 299.439 134.044 299.006 133.82C298.579 133.596 298.246 133.297 298.006 132.922C297.772 132.542 297.655 132.117 297.655 131.648C297.655 131.195 297.743 130.797 297.92 130.453C298.097 130.104 298.353 129.815 298.686 129.586C299.019 129.352 299.42 129.174 299.889 129.055C300.358 128.935 300.881 128.875 301.459 128.875H303.139ZM308.153 126.875V134H306.708V125.547H308.114L308.153 126.875ZM310.794 125.5L310.786 126.844C310.666 126.818 310.552 126.802 310.442 126.797C310.338 126.786 310.218 126.781 310.083 126.781C309.749 126.781 309.455 126.833 309.2 126.938C308.945 127.042 308.729 127.188 308.552 127.375C308.374 127.562 308.234 127.786 308.13 128.047C308.031 128.302 307.966 128.583 307.934 128.891L307.528 129.125C307.528 128.615 307.578 128.135 307.677 127.688C307.781 127.24 307.94 126.844 308.153 126.5C308.367 126.151 308.637 125.88 308.966 125.688C309.299 125.49 309.695 125.391 310.153 125.391C310.257 125.391 310.377 125.404 310.512 125.43C310.648 125.451 310.742 125.474 310.794 125.5ZM314.745 133.125L317.097 125.547H318.644L315.253 135.305C315.175 135.513 315.071 135.737 314.941 135.977C314.816 136.221 314.654 136.453 314.456 136.672C314.258 136.891 314.019 137.068 313.738 137.203C313.461 137.344 313.131 137.414 312.745 137.414C312.631 137.414 312.485 137.398 312.308 137.367C312.131 137.336 312.006 137.31 311.933 137.289L311.925 136.117C311.967 136.122 312.032 136.128 312.12 136.133C312.214 136.143 312.279 136.148 312.316 136.148C312.644 136.148 312.922 136.104 313.152 136.016C313.381 135.932 313.573 135.789 313.73 135.586C313.891 135.388 314.029 135.115 314.144 134.766L314.745 133.125ZM313.019 125.547L315.214 132.109L315.589 133.633L314.55 134.164L311.441 125.547H313.019ZM331.766 127.516V128.742H325.609V127.516H331.766ZM325.844 122.625V134H324.336V122.625H325.844ZM333.078 122.625V134H331.578V122.625H333.078ZM337.209 125.547V134H335.756V125.547H337.209ZM335.647 123.305C335.647 123.07 335.717 122.872 335.858 122.711C336.004 122.549 336.217 122.469 336.498 122.469C336.774 122.469 336.985 122.549 337.131 122.711C337.282 122.872 337.358 123.07 337.358 123.305C337.358 123.529 337.282 123.721 337.131 123.883C336.985 124.039 336.774 124.117 336.498 124.117C336.217 124.117 336.004 124.039 335.858 123.883C335.717 123.721 335.647 123.529 335.647 123.305ZM341.083 122V134H339.63V122H341.083ZM346.247 125.547L342.559 129.492L340.497 131.633L340.38 130.094L341.856 128.328L344.481 125.547H346.247ZM344.927 134L341.911 129.969L342.661 128.68L346.63 134H344.927ZM351.191 134.156C350.602 134.156 350.068 134.057 349.589 133.859C349.115 133.656 348.706 133.372 348.363 133.008C348.024 132.643 347.764 132.211 347.581 131.711C347.399 131.211 347.308 130.664 347.308 130.07V129.742C347.308 129.055 347.409 128.443 347.613 127.906C347.816 127.365 348.092 126.906 348.441 126.531C348.79 126.156 349.185 125.872 349.628 125.68C350.071 125.487 350.529 125.391 351.003 125.391C351.607 125.391 352.128 125.495 352.566 125.703C353.008 125.911 353.37 126.203 353.652 126.578C353.933 126.948 354.141 127.385 354.277 127.891C354.412 128.391 354.48 128.938 354.48 129.531V130.18H348.167V129H353.034V128.891C353.014 128.516 352.935 128.151 352.8 127.797C352.67 127.443 352.461 127.151 352.175 126.922C351.889 126.693 351.498 126.578 351.003 126.578C350.675 126.578 350.373 126.648 350.097 126.789C349.821 126.924 349.584 127.128 349.386 127.398C349.188 127.669 349.034 128 348.925 128.391C348.816 128.781 348.761 129.232 348.761 129.742V130.07C348.761 130.471 348.816 130.849 348.925 131.203C349.04 131.552 349.204 131.859 349.417 132.125C349.636 132.391 349.899 132.599 350.206 132.75C350.519 132.901 350.873 132.977 351.269 132.977C351.779 132.977 352.211 132.872 352.566 132.664C352.92 132.456 353.23 132.177 353.495 131.828L354.37 132.523C354.188 132.799 353.956 133.062 353.675 133.312C353.394 133.562 353.047 133.766 352.636 133.922C352.23 134.078 351.748 134.156 351.191 134.156Z" fill="#4D607D"/>
<rect x="541" y="79" width="58" height="58" rx="29" fill="#F4F6F9"/>
<path d="M583.75 99.25H556.25C555.56 99.25 555 99.8096 555 100.5V120.5C555 121.19 555.56 121.75 556.25 121.75H583.75C584.44 121.75 585 121.19 585 120.5V100.5C585 99.8096 584.44 99.25 583.75 99.25Z" stroke="black" stroke-width="2" stroke-linecap="round" stroke-linejoin="round"/>
<path d="M576.25 99.25V96.75C576.25 96.087 575.987 95.4511 575.518 94.9822C575.049 94.5134 574.413 94.25 573.75 94.25H566.25C565.587 94.25 564.951 94.5134 564.482 94.9822C564.013 95.4511 563.75 96.087 563.75 96.75V99.25" stroke="black" stroke-width="2" stroke-linecap="round" stroke-linejoin="round"/>
<path d="M585 107.734C580.441 110.371 575.266 111.756 570 111.75C564.733 111.764 559.556 110.378 555 107.734" stroke="black" stroke-width="2" stroke-linecap="round" stroke-linejoin="round"/>
<path d="M568.125 106.75H571.875" stroke="black" stroke-width="2" stroke-linecap="round" stroke-linejoin="round"/>
<path d="M631.531 83.2031V106H627.031V88.3906L621.625 90.1094V86.5625L631.047 83.2031H631.531ZM654.35 92.625V96.5625C654.35 98.2708 654.168 99.7448 653.803 100.984C653.439 102.214 652.913 103.224 652.225 104.016C651.548 104.797 650.741 105.375 649.803 105.75C648.866 106.125 647.824 106.312 646.678 106.312C645.761 106.312 644.907 106.198 644.116 105.969C643.324 105.729 642.61 105.359 641.975 104.859C641.35 104.359 640.808 103.729 640.35 102.969C639.902 102.198 639.558 101.281 639.319 100.219C639.079 99.1562 638.959 97.9375 638.959 96.5625V92.625C638.959 90.9167 639.142 89.4531 639.506 88.2344C639.881 87.0052 640.407 86 641.084 85.2188C641.772 84.4375 642.584 83.8646 643.522 83.5C644.459 83.125 645.501 82.9375 646.647 82.9375C647.564 82.9375 648.413 83.0573 649.194 83.2969C649.985 83.526 650.699 83.8854 651.334 84.375C651.97 84.8646 652.511 85.4948 652.959 86.2656C653.407 87.026 653.751 87.9375 653.991 89C654.23 90.0521 654.35 91.2604 654.35 92.625ZM649.834 97.1562V92.0156C649.834 91.1927 649.788 90.474 649.694 89.8594C649.61 89.2448 649.48 88.724 649.303 88.2969C649.126 87.8594 648.907 87.5052 648.647 87.2344C648.386 86.9635 648.09 86.7656 647.756 86.6406C647.423 86.5156 647.053 86.4531 646.647 86.4531C646.136 86.4531 645.683 86.5521 645.288 86.75C644.902 86.9479 644.574 87.2656 644.303 87.7031C644.032 88.1302 643.824 88.7031 643.678 89.4219C643.543 90.1302 643.475 90.9948 643.475 92.0156V97.1562C643.475 97.9792 643.517 98.7031 643.6 99.3281C643.694 99.9531 643.829 100.49 644.006 100.938C644.194 101.375 644.413 101.734 644.663 102.016C644.923 102.286 645.22 102.484 645.553 102.609C645.897 102.734 646.272 102.797 646.678 102.797C647.178 102.797 647.621 102.698 648.006 102.5C648.402 102.292 648.735 101.969 649.006 101.531C649.288 101.083 649.496 100.5 649.631 99.7812C649.767 99.0625 649.834 98.1875 649.834 97.1562ZM672.825 92.625V96.5625C672.825 98.2708 672.643 99.7448 672.278 100.984C671.914 102.214 671.388 103.224 670.7 104.016C670.023 104.797 669.216 105.375 668.278 105.75C667.341 106.125 666.299 106.312 665.153 106.312C664.236 106.312 663.382 106.198 662.591 105.969C661.799 105.729 661.085 105.359 660.45 104.859C659.825 104.359 659.283 103.729 658.825 102.969C658.377 102.198 658.033 101.281 657.794 100.219C657.554 99.1562 657.434 97.9375 657.434 96.5625V92.625C657.434 90.9167 657.617 89.4531 657.981 88.2344C658.356 87.0052 658.882 86 659.559 85.2188C660.247 84.4375 661.059 83.8646 661.997 83.5C662.934 83.125 663.976 82.9375 665.122 82.9375C666.039 82.9375 666.888 83.0573 667.669 83.2969C668.46 83.526 669.174 83.8854 669.809 84.375C670.445 84.8646 670.986 85.4948 671.434 86.2656C671.882 87.026 672.226 87.9375 672.466 89C672.705 90.0521 672.825 91.2604 672.825 92.625ZM668.309 97.1562V92.0156C668.309 91.1927 668.263 90.474 668.169 89.8594C668.085 89.2448 667.955 88.724 667.778 88.2969C667.601 87.8594 667.382 87.5052 667.122 87.2344C666.861 86.9635 666.565 86.7656 666.231 86.6406C665.898 86.5156 665.528 86.4531 665.122 86.4531C664.611 86.4531 664.158 86.5521 663.763 86.75C663.377 86.9479 663.049 87.2656 662.778 87.7031C662.507 88.1302 662.299 88.7031 662.153 89.4219C662.018 90.1302 661.95 90.9948 661.95 92.0156V97.1562C661.95 97.9792 661.992 98.7031 662.075 99.3281C662.169 99.9531 662.304 100.49 662.481 100.938C662.669 101.375 662.888 101.734 663.138 102.016C663.398 102.286 663.695 102.484 664.028 102.609C664.372 102.734 664.747 102.797 665.153 102.797C665.653 102.797 666.096 102.698 666.481 102.5C666.877 102.292 667.21 101.969 667.481 101.531C667.763 101.083 667.971 100.5 668.106 99.7812C668.242 99.0625 668.309 98.1875 668.309 97.1562ZM690.894 93.3281V97.25H675.3V93.3281H690.894ZM685.237 87.1562V103.719H680.972V87.1562H685.237Z" fill="#FFA41B"/>
<path d="M625.094 130.68V122.625H626.594V130.68C626.594 131.43 626.44 132.062 626.133 132.578C625.826 133.094 625.401 133.487 624.859 133.758C624.323 134.023 623.706 134.156 623.008 134.156C622.31 134.156 621.69 134.036 621.148 133.797C620.607 133.557 620.182 133.193 619.875 132.703C619.568 132.214 619.414 131.596 619.414 130.852H620.922C620.922 131.331 621.01 131.724 621.188 132.031C621.365 132.339 621.609 132.565 621.922 132.711C622.24 132.857 622.602 132.93 623.008 132.93C623.404 132.93 623.758 132.846 624.07 132.68C624.388 132.508 624.638 132.255 624.82 131.922C625.003 131.583 625.094 131.169 625.094 130.68ZM628.647 129.867V129.688C628.647 129.078 628.735 128.513 628.913 127.992C629.09 127.466 629.345 127.01 629.678 126.625C630.011 126.234 630.415 125.932 630.889 125.719C631.363 125.5 631.894 125.391 632.483 125.391C633.077 125.391 633.61 125.5 634.084 125.719C634.564 125.932 634.97 126.234 635.303 126.625C635.642 127.01 635.899 127.466 636.077 127.992C636.254 128.513 636.342 129.078 636.342 129.688V129.867C636.342 130.477 636.254 131.042 636.077 131.562C635.899 132.083 635.642 132.539 635.303 132.93C634.97 133.315 634.566 133.617 634.092 133.836C633.623 134.049 633.092 134.156 632.498 134.156C631.905 134.156 631.371 134.049 630.897 133.836C630.423 133.617 630.017 133.315 629.678 132.93C629.345 132.539 629.09 132.083 628.913 131.562C628.735 131.042 628.647 130.477 628.647 129.867ZM630.092 129.688V129.867C630.092 130.289 630.142 130.688 630.241 131.062C630.34 131.432 630.488 131.76 630.686 132.047C630.889 132.333 631.142 132.56 631.444 132.727C631.746 132.888 632.097 132.969 632.498 132.969C632.894 132.969 633.241 132.888 633.538 132.727C633.84 132.56 634.09 132.333 634.288 132.047C634.485 131.76 634.634 131.432 634.733 131.062C634.837 130.688 634.889 130.289 634.889 129.867V129.688C634.889 129.271 634.837 128.878 634.733 128.508C634.634 128.133 634.483 127.802 634.28 127.516C634.082 127.224 633.832 126.995 633.53 126.828C633.233 126.661 632.884 126.578 632.483 126.578C632.087 126.578 631.738 126.661 631.436 126.828C631.139 126.995 630.889 127.224 630.686 127.516C630.488 127.802 630.34 128.133 630.241 128.508C630.142 128.878 630.092 129.271 630.092 129.688ZM638.247 122H639.7V132.359L639.575 134H638.247V122ZM645.411 129.703V129.867C645.411 130.482 645.338 131.052 645.192 131.578C645.046 132.099 644.833 132.552 644.552 132.938C644.27 133.323 643.927 133.622 643.52 133.836C643.114 134.049 642.648 134.156 642.122 134.156C641.585 134.156 641.114 134.065 640.708 133.883C640.307 133.695 639.968 133.427 639.692 133.078C639.416 132.729 639.195 132.307 639.028 131.812C638.867 131.318 638.755 130.76 638.692 130.141V129.422C638.755 128.797 638.867 128.237 639.028 127.742C639.195 127.247 639.416 126.826 639.692 126.477C639.968 126.122 640.307 125.854 640.708 125.672C641.109 125.484 641.575 125.391 642.106 125.391C642.638 125.391 643.109 125.495 643.52 125.703C643.932 125.906 644.276 126.198 644.552 126.578C644.833 126.958 645.046 127.414 645.192 127.945C645.338 128.471 645.411 129.057 645.411 129.703ZM643.958 129.867V129.703C643.958 129.281 643.919 128.885 643.841 128.516C643.763 128.141 643.638 127.812 643.466 127.531C643.294 127.245 643.067 127.021 642.786 126.859C642.505 126.693 642.158 126.609 641.747 126.609C641.382 126.609 641.065 126.672 640.794 126.797C640.528 126.922 640.302 127.091 640.114 127.305C639.927 127.513 639.773 127.753 639.653 128.023C639.539 128.289 639.453 128.565 639.395 128.852V130.734C639.479 131.099 639.614 131.451 639.802 131.789C639.994 132.122 640.249 132.396 640.567 132.609C640.89 132.823 641.289 132.93 641.763 132.93C642.153 132.93 642.486 132.852 642.763 132.695C643.044 132.534 643.27 132.312 643.442 132.031C643.619 131.75 643.749 131.424 643.833 131.055C643.916 130.685 643.958 130.289 643.958 129.867ZM655.822 129.539H652.783V128.312H655.822C656.41 128.312 656.887 128.219 657.252 128.031C657.616 127.844 657.882 127.583 658.048 127.25C658.22 126.917 658.306 126.536 658.306 126.109C658.306 125.719 658.22 125.352 658.048 125.008C657.882 124.664 657.616 124.388 657.252 124.18C656.887 123.966 656.41 123.859 655.822 123.859H653.134V134H651.627V122.625H655.822C656.681 122.625 657.408 122.773 658.002 123.07C658.595 123.367 659.046 123.779 659.353 124.305C659.66 124.826 659.814 125.422 659.814 126.094C659.814 126.823 659.66 127.445 659.353 127.961C659.046 128.477 658.595 128.87 658.002 129.141C657.408 129.406 656.681 129.539 655.822 129.539ZM663.172 122V134H661.719V122H663.172ZM670.577 132.555V128.203C670.577 127.87 670.509 127.581 670.373 127.336C670.243 127.086 670.045 126.893 669.78 126.758C669.514 126.622 669.186 126.555 668.795 126.555C668.431 126.555 668.11 126.617 667.834 126.742C667.564 126.867 667.35 127.031 667.194 127.234C667.043 127.438 666.967 127.656 666.967 127.891H665.522C665.522 127.589 665.6 127.289 665.756 126.992C665.912 126.695 666.136 126.427 666.428 126.188C666.725 125.943 667.079 125.75 667.491 125.609C667.907 125.464 668.371 125.391 668.881 125.391C669.496 125.391 670.037 125.495 670.506 125.703C670.98 125.911 671.35 126.227 671.616 126.648C671.886 127.065 672.022 127.589 672.022 128.219V132.156C672.022 132.438 672.045 132.737 672.092 133.055C672.144 133.372 672.22 133.646 672.319 133.875V134H670.811C670.738 133.833 670.681 133.612 670.639 133.336C670.597 133.055 670.577 132.794 670.577 132.555ZM670.827 128.875L670.842 129.891H669.381C668.97 129.891 668.603 129.924 668.28 129.992C667.957 130.055 667.686 130.151 667.467 130.281C667.248 130.411 667.082 130.576 666.967 130.773C666.853 130.966 666.795 131.193 666.795 131.453C666.795 131.719 666.855 131.961 666.975 132.18C667.095 132.398 667.274 132.573 667.514 132.703C667.759 132.828 668.058 132.891 668.412 132.891C668.855 132.891 669.246 132.797 669.584 132.609C669.923 132.422 670.191 132.193 670.389 131.922C670.592 131.651 670.702 131.388 670.717 131.133L671.334 131.828C671.298 132.047 671.199 132.289 671.037 132.555C670.876 132.82 670.66 133.076 670.389 133.32C670.123 133.56 669.806 133.76 669.436 133.922C669.071 134.078 668.66 134.156 668.202 134.156C667.629 134.156 667.126 134.044 666.694 133.82C666.267 133.596 665.933 133.297 665.694 132.922C665.459 132.542 665.342 132.117 665.342 131.648C665.342 131.195 665.431 130.797 665.608 130.453C665.785 130.104 666.04 129.815 666.373 129.586C666.707 129.352 667.108 129.174 667.577 129.055C668.045 128.935 668.569 128.875 669.147 128.875H670.827ZM677.778 132.969C678.122 132.969 678.44 132.898 678.731 132.758C679.023 132.617 679.263 132.424 679.45 132.18C679.638 131.93 679.744 131.646 679.77 131.328H681.145C681.119 131.828 680.95 132.294 680.638 132.727C680.33 133.154 679.927 133.5 679.427 133.766C678.927 134.026 678.377 134.156 677.778 134.156C677.143 134.156 676.588 134.044 676.114 133.82C675.645 133.596 675.255 133.289 674.942 132.898C674.635 132.508 674.403 132.06 674.247 131.555C674.096 131.044 674.02 130.505 674.02 129.938V129.609C674.02 129.042 674.096 128.505 674.247 128C674.403 127.49 674.635 127.039 674.942 126.648C675.255 126.258 675.645 125.951 676.114 125.727C676.588 125.503 677.143 125.391 677.778 125.391C678.44 125.391 679.018 125.526 679.513 125.797C680.007 126.062 680.395 126.427 680.677 126.891C680.963 127.349 681.119 127.87 681.145 128.453H679.77C679.744 128.104 679.645 127.789 679.473 127.508C679.307 127.227 679.078 127.003 678.786 126.836C678.499 126.664 678.164 126.578 677.778 126.578C677.335 126.578 676.963 126.667 676.661 126.844C676.364 127.016 676.127 127.25 675.95 127.547C675.778 127.839 675.653 128.164 675.575 128.523C675.502 128.878 675.466 129.24 675.466 129.609V129.938C675.466 130.307 675.502 130.672 675.575 131.031C675.648 131.391 675.77 131.716 675.942 132.008C676.119 132.299 676.356 132.534 676.653 132.711C676.955 132.883 677.33 132.969 677.778 132.969ZM684.308 127.227V134H682.855V125.547H684.23L684.308 127.227ZM684.011 129.453L683.339 129.43C683.344 128.852 683.42 128.318 683.566 127.828C683.711 127.333 683.928 126.904 684.214 126.539C684.501 126.174 684.857 125.893 685.284 125.695C685.711 125.492 686.206 125.391 686.769 125.391C687.165 125.391 687.529 125.448 687.862 125.562C688.196 125.672 688.485 125.846 688.73 126.086C688.974 126.326 689.165 126.633 689.3 127.008C689.435 127.383 689.503 127.836 689.503 128.367V134H688.058V128.438C688.058 127.995 687.982 127.641 687.831 127.375C687.685 127.109 687.477 126.917 687.206 126.797C686.935 126.672 686.618 126.609 686.253 126.609C685.826 126.609 685.469 126.685 685.183 126.836C684.896 126.987 684.667 127.195 684.495 127.461C684.323 127.727 684.198 128.031 684.12 128.375C684.047 128.714 684.011 129.073 684.011 129.453ZM689.487 128.656L688.519 128.953C688.524 128.49 688.599 128.044 688.745 127.617C688.896 127.19 689.112 126.81 689.394 126.477C689.68 126.143 690.032 125.88 690.448 125.688C690.865 125.49 691.342 125.391 691.878 125.391C692.331 125.391 692.732 125.451 693.081 125.57C693.435 125.69 693.732 125.875 693.972 126.125C694.217 126.37 694.402 126.685 694.527 127.07C694.652 127.456 694.714 127.914 694.714 128.445V134H693.261V128.43C693.261 127.956 693.185 127.589 693.034 127.328C692.889 127.062 692.68 126.878 692.409 126.773C692.144 126.664 691.826 126.609 691.456 126.609C691.139 126.609 690.857 126.664 690.612 126.773C690.368 126.883 690.162 127.034 689.995 127.227C689.829 127.414 689.701 127.63 689.612 127.875C689.529 128.12 689.487 128.38 689.487 128.656ZM700.509 134.156C699.921 134.156 699.387 134.057 698.908 133.859C698.434 133.656 698.025 133.372 697.681 133.008C697.343 132.643 697.082 132.211 696.9 131.711C696.718 131.211 696.627 130.664 696.627 130.07V129.742C696.627 129.055 696.728 128.443 696.931 127.906C697.134 127.365 697.41 126.906 697.759 126.531C698.108 126.156 698.504 125.872 698.947 125.68C699.39 125.487 699.848 125.391 700.322 125.391C700.926 125.391 701.447 125.495 701.884 125.703C702.327 125.911 702.689 126.203 702.97 126.578C703.252 126.948 703.46 127.385 703.595 127.891C703.731 128.391 703.798 128.938 703.798 129.531V130.18H697.486V129H702.353V128.891C702.332 128.516 702.254 128.151 702.119 127.797C701.989 127.443 701.78 127.151 701.494 126.922C701.207 126.693 700.817 126.578 700.322 126.578C699.994 126.578 699.692 126.648 699.416 126.789C699.14 126.924 698.903 127.128 698.705 127.398C698.507 127.669 698.353 128 698.244 128.391C698.134 128.781 698.08 129.232 698.08 129.742V130.07C698.08 130.471 698.134 130.849 698.244 131.203C698.358 131.552 698.522 131.859 698.736 132.125C698.955 132.391 699.218 132.599 699.525 132.75C699.838 132.901 700.192 132.977 700.588 132.977C701.098 132.977 701.53 132.872 701.884 132.664C702.239 132.456 702.548 132.177 702.814 131.828L703.689 132.523C703.507 132.799 703.275 133.062 702.994 133.312C702.713 133.562 702.366 133.766 701.955 133.922C701.548 134.078 701.067 134.156 700.509 134.156ZM707.031 127.352V134H705.586V125.547H706.953L707.031 127.352ZM706.688 129.453L706.086 129.43C706.091 128.852 706.177 128.318 706.344 127.828C706.51 127.333 706.745 126.904 707.047 126.539C707.349 126.174 707.708 125.893 708.125 125.695C708.547 125.492 709.013 125.391 709.523 125.391C709.94 125.391 710.315 125.448 710.648 125.562C710.982 125.672 711.266 125.849 711.5 126.094C711.74 126.339 711.922 126.656 712.047 127.047C712.172 127.432 712.234 127.904 712.234 128.461V134H710.781V128.445C710.781 128.003 710.716 127.648 710.586 127.383C710.456 127.112 710.266 126.917 710.016 126.797C709.766 126.672 709.458 126.609 709.094 126.609C708.734 126.609 708.406 126.685 708.109 126.836C707.818 126.987 707.565 127.195 707.352 127.461C707.143 127.727 706.979 128.031 706.859 128.375C706.745 128.714 706.688 129.073 706.688 129.453ZM718.069 125.547V126.656H713.498V125.547H718.069ZM715.045 123.492H716.491V131.906C716.491 132.193 716.535 132.409 716.623 132.555C716.712 132.701 716.827 132.797 716.967 132.844C717.108 132.891 717.259 132.914 717.42 132.914C717.54 132.914 717.665 132.904 717.795 132.883C717.931 132.857 718.032 132.836 718.1 132.82L718.108 134C717.993 134.036 717.842 134.07 717.655 134.102C717.472 134.138 717.251 134.156 716.991 134.156C716.636 134.156 716.311 134.086 716.014 133.945C715.717 133.805 715.48 133.57 715.303 133.242C715.131 132.909 715.045 132.461 715.045 131.898V123.492ZM724.786 131.758C724.786 131.549 724.739 131.357 724.645 131.18C724.557 130.997 724.372 130.833 724.091 130.688C723.815 130.536 723.398 130.406 722.841 130.297C722.372 130.198 721.947 130.081 721.567 129.945C721.192 129.81 720.872 129.646 720.606 129.453C720.346 129.26 720.145 129.034 720.005 128.773C719.864 128.513 719.794 128.208 719.794 127.859C719.794 127.526 719.867 127.211 720.012 126.914C720.164 126.617 720.374 126.354 720.645 126.125C720.921 125.896 721.252 125.716 721.637 125.586C722.023 125.456 722.453 125.391 722.927 125.391C723.604 125.391 724.182 125.51 724.661 125.75C725.14 125.99 725.507 126.31 725.762 126.711C726.018 127.107 726.145 127.547 726.145 128.031H724.7C724.7 127.797 724.63 127.57 724.489 127.352C724.354 127.128 724.153 126.943 723.887 126.797C723.627 126.651 723.307 126.578 722.927 126.578C722.526 126.578 722.2 126.641 721.95 126.766C721.705 126.885 721.526 127.039 721.411 127.227C721.302 127.414 721.247 127.612 721.247 127.82C721.247 127.977 721.273 128.117 721.325 128.242C721.382 128.362 721.481 128.474 721.622 128.578C721.762 128.677 721.96 128.771 722.216 128.859C722.471 128.948 722.796 129.036 723.192 129.125C723.885 129.281 724.455 129.469 724.903 129.688C725.351 129.906 725.684 130.174 725.903 130.492C726.122 130.81 726.231 131.195 726.231 131.648C726.231 132.018 726.153 132.357 725.997 132.664C725.846 132.971 725.624 133.237 725.333 133.461C725.046 133.68 724.703 133.852 724.302 133.977C723.906 134.096 723.46 134.156 722.966 134.156C722.221 134.156 721.591 134.023 721.075 133.758C720.559 133.492 720.169 133.148 719.903 132.727C719.637 132.305 719.505 131.859 719.505 131.391H720.958C720.979 131.786 721.093 132.102 721.302 132.336C721.51 132.565 721.765 132.729 722.067 132.828C722.369 132.922 722.669 132.969 722.966 132.969C723.361 132.969 723.692 132.917 723.958 132.812C724.229 132.708 724.434 132.565 724.575 132.383C724.716 132.201 724.786 131.992 724.786 131.758Z" fill="#4D607D"/>
<rect x="913" y="79" width="58" height="58" rx="29" fill="#F4F6F9"/>
<path d="M938.25 115.5C941.011 115.5 943.25 113.261 943.25 110.5C943.25 107.739 941.011 105.5 938.25 105.5C935.489 105.5 933.25 107.739 933.25 110.5C933.25 113.261 935.489 115.5 938.25 115.5Z" stroke="black" stroke-width="2" stroke-linecap="round" stroke-linejoin="round"/>
<path d="M930.344 120.5C931.053 119.004 932.173 117.739 933.572 116.854C934.972 115.969 936.594 115.499 938.25 115.499C939.906 115.499 941.528 115.969 942.928 116.854C944.327 117.739 945.447 119.004 946.156 120.5H955.75C956.081 120.5 956.399 120.368 956.634 120.134C956.868 119.899 957 119.581 957 119.25V96.75C957 96.4185 956.868 96.1005 956.634 95.8661C956.399 95.6317 956.081 95.5 955.75 95.5H928.25C927.918 95.5 927.601 95.6317 927.366 95.8661C927.132 96.1005 927 96.4185 927 96.75V119.25C927 119.581 927.132 119.899 927.366 120.134C927.601 120.368 927.918 120.5 928.25 120.5H930.344Z" stroke="black" stroke-width="2" stroke-linecap="round" stroke-linejoin="round"/>
<path d="M949.5 115.5H952V100.5H932V103" stroke="black" stroke-width="2" stroke-linecap="round" stroke-linejoin="round"/>
<path d="M993.464 106V85.136H998.168V102.032H1006.42V106H993.464ZM1009.74 106V90.128H1014.45V106H1009.74ZM1012.08 87.792C1011.29 87.792 1010.65 87.568 1010.16 87.12C1009.67 86.672 1009.42 86.0747 1009.42 85.328C1009.42 84.5813 1009.67 83.984 1010.16 83.536C1010.65 83.088 1011.29 82.864 1012.08 82.864C1012.87 82.864 1013.51 83.088 1014 83.536C1014.49 83.984 1014.73 84.5813 1014.73 85.328C1014.73 86.0747 1014.49 86.672 1014 87.12C1013.51 87.568 1012.87 87.792 1012.08 87.792ZM1022.33 106L1016.99 90.128H1021.73L1023.77 97.616C1023.99 98.4053 1024.19 99.216 1024.38 100.048C1024.6 100.859 1024.81 101.68 1025.02 102.512H1025.15C1025.34 101.68 1025.53 100.859 1025.73 100.048C1025.94 99.216 1026.15 98.4053 1026.37 97.616L1028.45 90.128H1032.96L1027.77 106H1022.33ZM1042.39 106.384C1040.88 106.384 1039.51 106.053 1038.29 105.392C1037.08 104.731 1036.12 103.781 1035.41 102.544C1034.71 101.307 1034.36 99.8133 1034.36 98.064C1034.36 96.336 1034.71 94.8533 1035.41 93.616C1036.14 92.3787 1037.08 91.4293 1038.23 90.768C1039.38 90.0853 1040.59 89.744 1041.85 89.744C1043.36 89.744 1044.61 90.0853 1045.59 90.768C1046.59 91.4293 1047.34 92.336 1047.83 93.488C1048.34 94.6187 1048.6 95.9093 1048.6 97.36C1048.6 97.7653 1048.58 98.1707 1048.53 98.576C1048.49 98.96 1048.45 99.248 1048.41 99.44H1038.9C1039.12 100.592 1039.6 101.445 1040.34 102C1041.09 102.533 1041.98 102.8 1043.03 102.8C1044.16 102.8 1045.3 102.448 1046.45 101.744L1048.02 104.592C1047.21 105.147 1046.3 105.584 1045.3 105.904C1044.3 106.224 1043.33 106.384 1042.39 106.384ZM1038.87 96.336H1044.6C1044.6 95.4613 1044.38 94.7467 1043.96 94.192C1043.55 93.616 1042.88 93.328 1041.94 93.328C1041.22 93.328 1040.57 93.584 1039.99 94.096C1039.41 94.5867 1039.04 95.3333 1038.87 96.336Z" fill="#D60000"/>
<path d="M993.938 122.625V134H992.43V122.625H993.938ZM998.006 127.352V134H996.561V125.547H997.928L998.006 127.352ZM997.662 129.453L997.061 129.43C997.066 128.852 997.152 128.318 997.319 127.828C997.485 127.333 997.72 126.904 998.022 126.539C998.324 126.174 998.683 125.893 999.1 125.695C999.522 125.492 999.988 125.391 1000.5 125.391C1000.92 125.391 1001.29 125.448 1001.62 125.562C1001.96 125.672 1002.24 125.849 1002.47 126.094C1002.71 126.339 1002.9 126.656 1003.02 127.047C1003.15 127.432 1003.21 127.904 1003.21 128.461V134H1001.76V128.445C1001.76 128.003 1001.69 127.648 1001.56 127.383C1001.43 127.112 1001.24 126.917 1000.99 126.797C1000.74 126.672 1000.43 126.609 1000.07 126.609C999.709 126.609 999.381 126.685 999.084 126.836C998.793 126.987 998.54 127.195 998.327 127.461C998.118 127.727 997.954 128.031 997.834 128.375C997.72 128.714 997.662 129.073 997.662 129.453ZM1009.04 125.547V126.656H1004.47V125.547H1009.04ZM1006.02 123.492H1007.47V131.906C1007.47 132.193 1007.51 132.409 1007.6 132.555C1007.69 132.701 1007.8 132.797 1007.94 132.844C1008.08 132.891 1008.23 132.914 1008.4 132.914C1008.52 132.914 1008.64 132.904 1008.77 132.883C1008.91 132.857 1009.01 132.836 1009.07 132.82L1009.08 134C1008.97 134.036 1008.82 134.07 1008.63 134.102C1008.45 134.138 1008.23 134.156 1007.97 134.156C1007.61 134.156 1007.29 134.086 1006.99 133.945C1006.69 133.805 1006.46 133.57 1006.28 133.242C1006.11 132.909 1006.02 132.461 1006.02 131.898V123.492ZM1014.35 134.156C1013.76 134.156 1013.22 134.057 1012.75 133.859C1012.27 133.656 1011.86 133.372 1011.52 133.008C1011.18 132.643 1010.92 132.211 1010.74 131.711C1010.56 131.211 1010.46 130.664 1010.46 130.07V129.742C1010.46 129.055 1010.57 128.443 1010.77 127.906C1010.97 127.365 1011.25 126.906 1011.6 126.531C1011.95 126.156 1012.34 125.872 1012.78 125.68C1013.23 125.487 1013.69 125.391 1014.16 125.391C1014.76 125.391 1015.28 125.495 1015.72 125.703C1016.16 125.911 1016.53 126.203 1016.81 126.578C1017.09 126.948 1017.3 127.385 1017.43 127.891C1017.57 128.391 1017.64 128.938 1017.64 129.531V130.18H1011.32V129H1016.19V128.891C1016.17 128.516 1016.09 128.151 1015.96 127.797C1015.83 127.443 1015.62 127.151 1015.33 126.922C1015.04 126.693 1014.65 126.578 1014.16 126.578C1013.83 126.578 1013.53 126.648 1013.25 126.789C1012.98 126.924 1012.74 127.128 1012.54 127.398C1012.34 127.669 1012.19 128 1012.08 128.391C1011.97 128.781 1011.92 129.232 1011.92 129.742V130.07C1011.92 130.471 1011.97 130.849 1012.08 131.203C1012.2 131.552 1012.36 131.859 1012.57 132.125C1012.79 132.391 1013.06 132.599 1013.36 132.75C1013.67 132.901 1014.03 132.977 1014.42 132.977C1014.94 132.977 1015.37 132.872 1015.72 132.664C1016.08 132.456 1016.39 132.177 1016.65 131.828L1017.53 132.523C1017.34 132.799 1017.11 133.062 1016.83 133.312C1016.55 133.562 1016.2 133.766 1015.79 133.922C1015.39 134.078 1014.9 134.156 1014.35 134.156ZM1020.87 126.875V134H1019.42V125.547H1020.83L1020.87 126.875ZM1023.51 125.5L1023.5 126.844C1023.38 126.818 1023.27 126.802 1023.16 126.797C1023.05 126.786 1022.93 126.781 1022.8 126.781C1022.47 126.781 1022.17 126.833 1021.92 126.938C1021.66 127.042 1021.44 127.188 1021.27 127.375C1021.09 127.562 1020.95 127.786 1020.85 128.047C1020.75 128.302 1020.68 128.583 1020.65 128.891L1020.24 129.125C1020.24 128.615 1020.29 128.135 1020.39 127.688C1020.5 127.24 1020.66 126.844 1020.87 126.5C1021.08 126.151 1021.35 125.88 1021.68 125.688C1022.01 125.49 1022.41 125.391 1022.87 125.391C1022.97 125.391 1023.09 125.404 1023.23 125.43C1023.36 125.451 1023.46 125.474 1023.51 125.5ZM1029.62 132.555V128.203C1029.62 127.87 1029.55 127.581 1029.41 127.336C1029.28 127.086 1029.09 126.893 1028.82 126.758C1028.55 126.622 1028.23 126.555 1027.84 126.555C1027.47 126.555 1027.15 126.617 1026.88 126.742C1026.6 126.867 1026.39 127.031 1026.23 127.234C1026.08 127.438 1026.01 127.656 1026.01 127.891H1024.56C1024.56 127.589 1024.64 127.289 1024.8 126.992C1024.95 126.695 1025.18 126.427 1025.47 126.188C1025.77 125.943 1026.12 125.75 1026.53 125.609C1026.95 125.464 1027.41 125.391 1027.92 125.391C1028.54 125.391 1029.08 125.495 1029.55 125.703C1030.02 125.911 1030.39 126.227 1030.66 126.648C1030.93 127.065 1031.06 127.589 1031.06 128.219V132.156C1031.06 132.438 1031.09 132.737 1031.13 133.055C1031.18 133.372 1031.26 133.646 1031.36 133.875V134H1029.85C1029.78 133.833 1029.72 133.612 1029.68 133.336C1029.64 133.055 1029.62 132.794 1029.62 132.555ZM1029.87 128.875L1029.88 129.891H1028.42C1028.01 129.891 1027.64 129.924 1027.32 129.992C1027 130.055 1026.73 130.151 1026.51 130.281C1026.29 130.411 1026.12 130.576 1026.01 130.773C1025.89 130.966 1025.84 131.193 1025.84 131.453C1025.84 131.719 1025.9 131.961 1026.02 132.18C1026.14 132.398 1026.32 132.573 1026.55 132.703C1026.8 132.828 1027.1 132.891 1027.45 132.891C1027.9 132.891 1028.29 132.797 1028.62 132.609C1028.96 132.422 1029.23 132.193 1029.43 131.922C1029.63 131.651 1029.74 131.388 1029.76 131.133L1030.38 131.828C1030.34 132.047 1030.24 132.289 1030.08 132.555C1029.92 132.82 1029.7 133.076 1029.43 133.32C1029.16 133.56 1028.85 133.76 1028.48 133.922C1028.11 134.078 1027.7 134.156 1027.24 134.156C1026.67 134.156 1026.17 134.044 1025.73 133.82C1025.31 133.596 1024.97 133.297 1024.73 132.922C1024.5 132.542 1024.38 132.117 1024.38 131.648C1024.38 131.195 1024.47 130.797 1024.65 130.453C1024.83 130.104 1025.08 129.815 1025.41 129.586C1025.75 129.352 1026.15 129.174 1026.62 129.055C1027.09 128.935 1027.61 128.875 1028.19 128.875H1029.87ZM1036.82 132.969C1037.16 132.969 1037.48 132.898 1037.77 132.758C1038.06 132.617 1038.3 132.424 1038.49 132.18C1038.68 131.93 1038.78 131.646 1038.81 131.328H1040.19C1040.16 131.828 1039.99 132.294 1039.68 132.727C1039.37 133.154 1038.97 133.5 1038.47 133.766C1037.97 134.026 1037.42 134.156 1036.82 134.156C1036.18 134.156 1035.63 134.044 1035.15 133.82C1034.69 133.596 1034.3 133.289 1033.98 132.898C1033.68 132.508 1033.44 132.06 1033.29 131.555C1033.14 131.044 1033.06 130.505 1033.06 129.938V129.609C1033.06 129.042 1033.14 128.505 1033.29 128C1033.44 127.49 1033.68 127.039 1033.98 126.648C1034.3 126.258 1034.69 125.951 1035.15 125.727C1035.63 125.503 1036.18 125.391 1036.82 125.391C1037.48 125.391 1038.06 125.526 1038.55 125.797C1039.05 126.062 1039.44 126.427 1039.72 126.891C1040 127.349 1040.16 127.87 1040.19 128.453H1038.81C1038.78 128.104 1038.69 127.789 1038.51 127.508C1038.35 127.227 1038.12 127.003 1037.83 126.836C1037.54 126.664 1037.2 126.578 1036.82 126.578C1036.38 126.578 1036 126.667 1035.7 126.844C1035.4 127.016 1035.17 127.25 1034.99 127.547C1034.82 127.839 1034.69 128.164 1034.62 128.523C1034.54 128.878 1034.51 129.24 1034.51 129.609V129.938C1034.51 130.307 1034.54 130.672 1034.62 131.031C1034.69 131.391 1034.81 131.716 1034.98 132.008C1035.16 132.299 1035.4 132.534 1035.69 132.711C1036 132.883 1036.37 132.969 1036.82 132.969ZM1045.45 125.547V126.656H1040.88V125.547H1045.45ZM1042.43 123.492H1043.87V131.906C1043.87 132.193 1043.92 132.409 1044 132.555C1044.09 132.701 1044.21 132.797 1044.35 132.844C1044.49 132.891 1044.64 132.914 1044.8 132.914C1044.92 132.914 1045.05 132.904 1045.18 132.883C1045.31 132.857 1045.41 132.836 1045.48 132.82L1045.49 134C1045.37 134.036 1045.22 134.07 1045.04 134.102C1044.85 134.138 1044.63 134.156 1044.37 134.156C1044.02 134.156 1043.69 134.086 1043.4 133.945C1043.1 133.805 1042.86 133.57 1042.68 133.242C1042.51 132.909 1042.43 132.461 1042.43 131.898V123.492ZM1048.82 125.547V134H1047.36V125.547H1048.82ZM1047.25 123.305C1047.25 123.07 1047.32 122.872 1047.46 122.711C1047.61 122.549 1047.82 122.469 1048.1 122.469C1048.38 122.469 1048.59 122.549 1048.74 122.711C1048.89 122.872 1048.96 123.07 1048.96 123.305C1048.96 123.529 1048.89 123.721 1048.74 123.883C1048.59 124.039 1048.38 124.117 1048.1 124.117C1047.82 124.117 1047.61 124.039 1047.46 123.883C1047.32 123.721 1047.25 123.529 1047.25 123.305ZM1053.81 132.695L1056.12 125.547H1057.6L1054.56 134H1053.59L1053.81 132.695ZM1051.88 125.547L1054.26 132.734L1054.42 134H1053.45L1050.39 125.547H1051.88ZM1062.48 134.156C1061.9 134.156 1061.36 134.057 1060.88 133.859C1060.41 133.656 1060 133.372 1059.66 133.008C1059.32 132.643 1059.06 132.211 1058.88 131.711C1058.69 131.211 1058.6 130.664 1058.6 130.07V129.742C1058.6 129.055 1058.7 128.443 1058.91 127.906C1059.11 127.365 1059.39 126.906 1059.73 126.531C1060.08 126.156 1060.48 125.872 1060.92 125.68C1061.36 125.487 1061.82 125.391 1062.3 125.391C1062.9 125.391 1063.42 125.495 1063.86 125.703C1064.3 125.911 1064.66 126.203 1064.95 126.578C1065.23 126.948 1065.43 127.385 1065.57 127.891C1065.71 128.391 1065.77 128.938 1065.77 129.531V130.18H1059.46V129H1064.33V128.891C1064.31 128.516 1064.23 128.151 1064.09 127.797C1063.96 127.443 1063.76 127.151 1063.47 126.922C1063.18 126.693 1062.79 126.578 1062.3 126.578C1061.97 126.578 1061.67 126.648 1061.39 126.789C1061.11 126.924 1060.88 127.128 1060.68 127.398C1060.48 127.669 1060.33 128 1060.22 128.391C1060.11 128.781 1060.05 129.232 1060.05 129.742V130.07C1060.05 130.471 1060.11 130.849 1060.22 131.203C1060.33 131.552 1060.5 131.859 1060.71 132.125C1060.93 132.391 1061.19 132.599 1061.5 132.75C1061.81 132.901 1062.17 132.977 1062.56 132.977C1063.07 132.977 1063.51 132.872 1063.86 132.664C1064.21 132.456 1064.52 132.177 1064.79 131.828L1065.66 132.523C1065.48 132.799 1065.25 133.062 1064.97 133.312C1064.69 133.562 1064.34 133.766 1063.93 133.922C1063.52 134.078 1063.04 134.156 1062.48 134.156ZM1077.91 131.125C1077.91 130.859 1077.87 130.625 1077.79 130.422C1077.71 130.214 1077.57 130.026 1077.36 129.859C1077.17 129.693 1076.89 129.534 1076.54 129.383C1076.19 129.232 1075.74 129.078 1075.21 128.922C1074.65 128.755 1074.14 128.57 1073.68 128.367C1073.23 128.159 1072.84 127.922 1072.52 127.656C1072.2 127.391 1071.95 127.086 1071.78 126.742C1071.61 126.398 1071.52 126.005 1071.52 125.562C1071.52 125.12 1071.61 124.711 1071.79 124.336C1071.98 123.961 1072.24 123.635 1072.57 123.359C1072.92 123.078 1073.33 122.859 1073.8 122.703C1074.28 122.547 1074.8 122.469 1075.39 122.469C1076.24 122.469 1076.97 122.633 1077.56 122.961C1078.16 123.284 1078.61 123.708 1078.93 124.234C1079.24 124.755 1079.4 125.312 1079.4 125.906H1077.9C1077.9 125.479 1077.8 125.102 1077.62 124.773C1077.44 124.44 1077.16 124.18 1076.79 123.992C1076.42 123.799 1075.96 123.703 1075.39 123.703C1074.85 123.703 1074.41 123.784 1074.06 123.945C1073.71 124.107 1073.45 124.326 1073.28 124.602C1073.11 124.878 1073.03 125.193 1073.03 125.547C1073.03 125.786 1073.08 126.005 1073.18 126.203C1073.28 126.396 1073.44 126.576 1073.65 126.742C1073.87 126.909 1074.15 127.062 1074.48 127.203C1074.82 127.344 1075.22 127.479 1075.69 127.609C1076.34 127.792 1076.9 127.995 1077.36 128.219C1077.83 128.443 1078.22 128.695 1078.52 128.977C1078.83 129.253 1079.05 129.568 1079.2 129.922C1079.35 130.271 1079.43 130.667 1079.43 131.109C1079.43 131.573 1079.33 131.992 1079.15 132.367C1078.96 132.742 1078.69 133.062 1078.34 133.328C1077.99 133.594 1077.57 133.799 1077.08 133.945C1076.6 134.086 1076.06 134.156 1075.46 134.156C1074.93 134.156 1074.41 134.083 1073.9 133.938C1073.4 133.792 1072.94 133.573 1072.52 133.281C1072.11 132.99 1071.78 132.63 1071.53 132.203C1071.28 131.771 1071.16 131.271 1071.16 130.703H1072.66C1072.66 131.094 1072.74 131.43 1072.89 131.711C1073.04 131.987 1073.24 132.216 1073.5 132.398C1073.77 132.581 1074.07 132.716 1074.4 132.805C1074.74 132.888 1075.09 132.93 1075.46 132.93C1075.98 132.93 1076.43 132.857 1076.79 132.711C1077.16 132.565 1077.43 132.357 1077.62 132.086C1077.81 131.815 1077.91 131.495 1077.91 131.125ZM1084.74 134.156C1084.15 134.156 1083.62 134.057 1083.14 133.859C1082.66 133.656 1082.25 133.372 1081.91 133.008C1081.57 132.643 1081.31 132.211 1081.13 131.711C1080.95 131.211 1080.85 130.664 1080.85 130.07V129.742C1080.85 129.055 1080.96 128.443 1081.16 127.906C1081.36 127.365 1081.64 126.906 1081.99 126.531C1082.34 126.156 1082.73 125.872 1083.18 125.68C1083.62 125.487 1084.08 125.391 1084.55 125.391C1085.15 125.391 1085.68 125.495 1086.11 125.703C1086.56 125.911 1086.92 126.203 1087.2 126.578C1087.48 126.948 1087.69 127.385 1087.82 127.891C1087.96 128.391 1088.03 128.938 1088.03 129.531V130.18H1081.71V129H1086.58V128.891C1086.56 128.516 1086.48 128.151 1086.35 127.797C1086.22 127.443 1086.01 127.151 1085.72 126.922C1085.44 126.693 1085.04 126.578 1084.55 126.578C1084.22 126.578 1083.92 126.648 1083.64 126.789C1083.37 126.924 1083.13 127.128 1082.93 127.398C1082.73 127.669 1082.58 128 1082.47 128.391C1082.36 128.781 1082.31 129.232 1082.31 129.742V130.07C1082.31 130.471 1082.36 130.849 1082.47 131.203C1082.59 131.552 1082.75 131.859 1082.96 132.125C1083.18 132.391 1083.45 132.599 1083.75 132.75C1084.07 132.901 1084.42 132.977 1084.82 132.977C1085.33 132.977 1085.76 132.872 1086.11 132.664C1086.47 132.456 1086.78 132.177 1087.04 131.828L1087.92 132.523C1087.73 132.799 1087.5 133.062 1087.22 133.312C1086.94 133.562 1086.59 133.766 1086.18 133.922C1085.78 134.078 1085.29 134.156 1084.74 134.156ZM1094.74 131.758C1094.74 131.549 1094.69 131.357 1094.6 131.18C1094.51 130.997 1094.32 130.833 1094.04 130.688C1093.76 130.536 1093.35 130.406 1092.79 130.297C1092.32 130.198 1091.9 130.081 1091.52 129.945C1091.14 129.81 1090.82 129.646 1090.56 129.453C1090.3 129.26 1090.1 129.034 1089.95 128.773C1089.81 128.513 1089.74 128.208 1089.74 127.859C1089.74 127.526 1089.82 127.211 1089.96 126.914C1090.11 126.617 1090.32 126.354 1090.6 126.125C1090.87 125.896 1091.2 125.716 1091.59 125.586C1091.97 125.456 1092.4 125.391 1092.88 125.391C1093.55 125.391 1094.13 125.51 1094.61 125.75C1095.09 125.99 1095.46 126.31 1095.71 126.711C1095.97 127.107 1096.1 127.547 1096.1 128.031H1094.65C1094.65 127.797 1094.58 127.57 1094.44 127.352C1094.3 127.128 1094.1 126.943 1093.84 126.797C1093.58 126.651 1093.26 126.578 1092.88 126.578C1092.48 126.578 1092.15 126.641 1091.9 126.766C1091.66 126.885 1091.48 127.039 1091.36 127.227C1091.25 127.414 1091.2 127.612 1091.2 127.82C1091.2 127.977 1091.22 128.117 1091.28 128.242C1091.33 128.362 1091.43 128.474 1091.57 128.578C1091.71 128.677 1091.91 128.771 1092.17 128.859C1092.42 128.948 1092.75 129.036 1093.14 129.125C1093.83 129.281 1094.41 129.469 1094.85 129.688C1095.3 129.906 1095.63 130.174 1095.85 130.492C1096.07 130.81 1096.18 131.195 1096.18 131.648C1096.18 132.018 1096.1 132.357 1095.95 132.664C1095.8 132.971 1095.57 133.237 1095.28 133.461C1095 133.68 1094.65 133.852 1094.25 133.977C1093.86 134.096 1093.41 134.156 1092.92 134.156C1092.17 134.156 1091.54 134.023 1091.03 133.758C1090.51 133.492 1090.12 133.148 1089.85 132.727C1089.59 132.305 1089.45 131.859 1089.45 131.391H1090.91C1090.93 131.786 1091.04 132.102 1091.25 132.336C1091.46 132.565 1091.72 132.729 1092.02 132.828C1092.32 132.922 1092.62 132.969 1092.92 132.969C1093.31 132.969 1093.64 132.917 1093.91 132.812C1094.18 132.708 1094.38 132.565 1094.53 132.383C1094.67 132.201 1094.74 131.992 1094.74 131.758ZM1103.1 131.758C1103.1 131.549 1103.05 131.357 1102.96 131.18C1102.87 130.997 1102.69 130.833 1102.41 130.688C1102.13 130.536 1101.71 130.406 1101.16 130.297C1100.69 130.198 1100.26 130.081 1099.88 129.945C1099.51 129.81 1099.19 129.646 1098.92 129.453C1098.66 129.26 1098.46 129.034 1098.32 128.773C1098.18 128.513 1098.11 128.208 1098.11 127.859C1098.11 127.526 1098.18 127.211 1098.33 126.914C1098.48 126.617 1098.69 126.354 1098.96 126.125C1099.24 125.896 1099.57 125.716 1099.95 125.586C1100.34 125.456 1100.77 125.391 1101.24 125.391C1101.92 125.391 1102.5 125.51 1102.98 125.75C1103.46 125.99 1103.82 126.31 1104.08 126.711C1104.33 127.107 1104.46 127.547 1104.46 128.031H1103.02C1103.02 127.797 1102.95 127.57 1102.8 127.352C1102.67 127.128 1102.47 126.943 1102.2 126.797C1101.94 126.651 1101.62 126.578 1101.24 126.578C1100.84 126.578 1100.52 126.641 1100.27 126.766C1100.02 126.885 1099.84 127.039 1099.73 127.227C1099.62 127.414 1099.56 127.612 1099.56 127.82C1099.56 127.977 1099.59 128.117 1099.64 128.242C1099.7 128.362 1099.8 128.474 1099.94 128.578C1100.08 128.677 1100.28 128.771 1100.53 128.859C1100.79 128.948 1101.11 129.036 1101.51 129.125C1102.2 129.281 1102.77 129.469 1103.22 129.688C1103.67 129.906 1104 130.174 1104.22 130.492C1104.44 130.81 1104.55 131.195 1104.55 131.648C1104.55 132.018 1104.47 132.357 1104.31 132.664C1104.16 132.971 1103.94 133.237 1103.65 133.461C1103.36 133.68 1103.02 133.852 1102.62 133.977C1102.22 134.096 1101.78 134.156 1101.28 134.156C1100.54 134.156 1099.91 134.023 1099.39 133.758C1098.88 133.492 1098.48 133.148 1098.22 132.727C1097.95 132.305 1097.82 131.859 1097.82 131.391H1099.27C1099.29 131.786 1099.41 132.102 1099.62 132.336C1099.83 132.565 1100.08 132.729 1100.38 132.828C1100.68 132.922 1100.98 132.969 1101.28 132.969C1101.68 132.969 1102.01 132.917 1102.27 132.812C1102.54 132.708 1102.75 132.565 1102.89 132.383C1103.03 132.201 1103.1 131.992 1103.1 131.758ZM1108.12 125.547V134H1106.66V125.547H1108.12ZM1106.55 123.305C1106.55 123.07 1106.62 122.872 1106.76 122.711C1106.91 122.549 1107.12 122.469 1107.4 122.469C1107.68 122.469 1107.89 122.549 1108.04 122.711C1108.19 122.872 1108.26 123.07 1108.26 123.305C1108.26 123.529 1108.19 123.721 1108.04 123.883C1107.89 124.039 1107.68 124.117 1107.4 124.117C1107.12 124.117 1106.91 124.039 1106.76 123.883C1106.62 123.721 1106.55 123.529 1106.55 123.305ZM1110.15 129.867V129.688C1110.15 129.078 1110.24 128.513 1110.42 127.992C1110.6 127.466 1110.85 127.01 1111.18 126.625C1111.52 126.234 1111.92 125.932 1112.4 125.719C1112.87 125.5 1113.4 125.391 1113.99 125.391C1114.58 125.391 1115.12 125.5 1115.59 125.719C1116.07 125.932 1116.48 126.234 1116.81 126.625C1117.15 127.01 1117.41 127.466 1117.58 127.992C1117.76 128.513 1117.85 129.078 1117.85 129.688V129.867C1117.85 130.477 1117.76 131.042 1117.58 131.562C1117.41 132.083 1117.15 132.539 1116.81 132.93C1116.48 133.315 1116.07 133.617 1115.6 133.836C1115.13 134.049 1114.6 134.156 1114 134.156C1113.41 134.156 1112.88 134.049 1112.4 133.836C1111.93 133.617 1111.52 133.315 1111.18 132.93C1110.85 132.539 1110.6 132.083 1110.42 131.562C1110.24 131.042 1110.15 130.477 1110.15 129.867ZM1111.6 129.688V129.867C1111.6 130.289 1111.65 130.688 1111.75 131.062C1111.85 131.432 1111.99 131.76 1112.19 132.047C1112.4 132.333 1112.65 132.56 1112.95 132.727C1113.25 132.888 1113.6 132.969 1114 132.969C1114.4 132.969 1114.75 132.888 1115.04 132.727C1115.35 132.56 1115.6 132.333 1115.79 132.047C1115.99 131.76 1116.14 131.432 1116.24 131.062C1116.34 130.688 1116.4 130.289 1116.4 129.867V129.688C1116.4 129.271 1116.34 128.878 1116.24 128.508C1116.14 128.133 1115.99 127.802 1115.79 127.516C1115.59 127.224 1115.34 126.995 1115.04 126.828C1114.74 126.661 1114.39 126.578 1113.99 126.578C1113.59 126.578 1113.24 126.661 1112.94 126.828C1112.65 126.995 1112.4 127.224 1112.19 127.516C1111.99 127.802 1111.85 128.133 1111.75 128.508C1111.65 128.878 1111.6 129.271 1111.6 129.688ZM1121.21 127.352V134H1119.76V125.547H1121.13L1121.21 127.352ZM1120.86 129.453L1120.26 129.43C1120.27 128.852 1120.35 128.318 1120.52 127.828C1120.69 127.333 1120.92 126.904 1121.22 126.539C1121.52 126.174 1121.88 125.893 1122.3 125.695C1122.72 125.492 1123.19 125.391 1123.7 125.391C1124.12 125.391 1124.49 125.448 1124.82 125.562C1125.16 125.672 1125.44 125.849 1125.68 126.094C1125.91 126.339 1126.1 126.656 1126.22 127.047C1126.35 127.432 1126.41 127.904 1126.41 128.461V134H1124.96V128.445C1124.96 128.003 1124.89 127.648 1124.76 127.383C1124.63 127.112 1124.44 126.917 1124.19 126.797C1123.94 126.672 1123.63 126.609 1123.27 126.609C1122.91 126.609 1122.58 126.685 1122.28 126.836C1121.99 126.987 1121.74 127.195 1121.53 127.461C1121.32 127.727 1121.15 128.031 1121.03 128.375C1120.92 128.714 1120.86 129.073 1120.86 129.453ZM1133.63 131.758C1133.63 131.549 1133.58 131.357 1133.49 131.18C1133.4 130.997 1133.21 130.833 1132.93 130.688C1132.66 130.536 1132.24 130.406 1131.68 130.297C1131.21 130.198 1130.79 130.081 1130.41 129.945C1130.03 129.81 1129.71 129.646 1129.45 129.453C1129.19 129.26 1128.99 129.034 1128.85 128.773C1128.7 128.513 1128.63 128.208 1128.63 127.859C1128.63 127.526 1128.71 127.211 1128.85 126.914C1129 126.617 1129.22 126.354 1129.49 126.125C1129.76 125.896 1130.09 125.716 1130.48 125.586C1130.86 125.456 1131.29 125.391 1131.77 125.391C1132.44 125.391 1133.02 125.51 1133.5 125.75C1133.98 125.99 1134.35 126.31 1134.6 126.711C1134.86 127.107 1134.99 127.547 1134.99 128.031H1133.54C1133.54 127.797 1133.47 127.57 1133.33 127.352C1133.19 127.128 1132.99 126.943 1132.73 126.797C1132.47 126.651 1132.15 126.578 1131.77 126.578C1131.37 126.578 1131.04 126.641 1130.79 126.766C1130.55 126.885 1130.37 127.039 1130.25 127.227C1130.14 127.414 1130.09 127.612 1130.09 127.82C1130.09 127.977 1130.11 128.117 1130.17 128.242C1130.22 128.362 1130.32 128.474 1130.46 128.578C1130.6 128.677 1130.8 128.771 1131.06 128.859C1131.31 128.948 1131.64 129.036 1132.03 129.125C1132.73 129.281 1133.3 129.469 1133.74 129.688C1134.19 129.906 1134.52 130.174 1134.74 130.492C1134.96 130.81 1135.07 131.195 1135.07 131.648C1135.07 132.018 1134.99 132.357 1134.84 132.664C1134.69 132.971 1134.47 133.237 1134.17 133.461C1133.89 133.68 1133.54 133.852 1133.14 133.977C1132.75 134.096 1132.3 134.156 1131.81 134.156C1131.06 134.156 1130.43 134.023 1129.92 133.758C1129.4 133.492 1129.01 133.148 1128.74 132.727C1128.48 132.305 1128.35 131.859 1128.35 131.391H1129.8C1129.82 131.786 1129.93 132.102 1130.14 132.336C1130.35 132.565 1130.61 132.729 1130.91 132.828C1131.21 132.922 1131.51 132.969 1131.81 132.969C1132.2 132.969 1132.53 132.917 1132.8 132.812C1133.07 132.708 1133.27 132.565 1133.42 132.383C1133.56 132.201 1133.63 131.992 1133.63 131.758Z" fill="#4D607D"/>
<defs>
<filter id="filter0_d_2002_6" x="0" y="0" width="1228" height="229" filterUnits="userSpaceOnUse" color-interpolation-filters="sRGB">
<feFlood flood-opacity="0" result="BackgroundImageFix"/>
<feColorMatrix in="SourceAlpha" type="matrix" values="0 0 0 0 0 0 0 0 0 0 0 0 0 0 0 0 0 0 127 0" result="hardAlpha"/>
<feOffset dx="1" dy="5"/>
<feGaussianBlur stdDeviation="25"/>
<feComposite in2="hardAlpha" operator="out"/>
<feColorMatrix type="matrix" values="0 0 0 0 0.329412 0 0 0 0 0.388235 0 0 0 0 0.478431 0 0 0 0.1 0"/>
<feBlend mode="normal" in2="BackgroundImageFix" result="effect1_dropShadow_2002_6"/>
<feBlend mode="normal" in="SourceGraphic" in2="effect1_dropShadow_2002_6" result="shape"/>
</filter>
</defs>
</svg>
